<?xml version="1.0" encoding="utf-8"?>
<!-- Generator: Adobe Illustrator 27.3.1, SVG Export Plug-In . SVG Version: 6.00 Build 0)  -->
<svg version="1.1" id="Camada_1" xmlns="http://www.w3.org/2000/svg" xmlns:xlink="http://www.w3.org/1999/xlink" x="0px" y="0px"
	 viewBox="0 0 396 485" style="enable-background:new 0 0 396 485;" xml:space="preserve">
<style type="text/css">
	.st0{fill:#281D16;}
	.st1{fill:#379837;}
	.st2{fill:#C91517;}
</style>
<g>
	<g>
		<path class="st0" d="M142.24,442.89c-4.49,0-8.04,1.49-10.64,4.48c-2.6,2.99-3.9,7.08-3.9,12.27c0,5.34,1.25,9.47,3.76,12.38
			c2.51,2.91,6.08,4.37,10.72,4.37c2.85,0,6.11-0.51,9.76-1.54v4.16c-2.83,1.06-6.33,1.59-10.49,1.59c-6.02,0-10.67-1.82-13.94-5.47
			c-3.27-3.65-4.91-8.83-4.91-15.55c0-4.21,0.79-7.89,2.36-11.06c1.58-3.16,3.85-5.6,6.82-7.31c2.97-1.71,6.47-2.57,10.5-2.57
			c4.29,0,8.04,0.78,11.24,2.34l-2.01,4.08C148.43,443.61,145.34,442.89,142.24,442.89z"/>
		<path class="st0" d="M173.12,480.6c-4.53,0-8.11-1.38-10.73-4.13c-2.62-2.75-3.93-6.58-3.93-11.47c0-4.93,1.22-8.85,3.65-11.75
			c2.43-2.9,5.7-4.35,9.8-4.35c3.84,0,6.88,1.26,9.12,3.78c2.24,2.52,3.36,5.85,3.36,9.98v2.93h-21.11c0.09,3.59,1,6.32,2.73,8.18
			c1.72,1.86,4.15,2.79,7.29,2.79c3.3,0,6.56-0.69,9.79-2.07v4.13c-1.64,0.71-3.19,1.21-4.66,1.52
			C176.95,480.45,175.19,480.6,173.12,480.6z M171.86,452.77c-2.46,0-4.42,0.8-5.89,2.4c-1.46,1.6-2.33,3.82-2.59,6.65h16.03
			c0-2.92-0.65-5.16-1.96-6.71C176.15,453.55,174.28,452.77,171.86,452.77z"/>
		<path class="st0" d="M211.15,480.05l-0.92-4.35h-0.22c-1.53,1.92-3.05,3.21-4.57,3.89c-1.52,0.68-3.42,1.02-5.69,1.02
			c-3.04,0-5.42-0.78-7.14-2.34c-1.73-1.56-2.59-3.79-2.59-6.67c0-6.18,4.95-9.42,14.85-9.72l5.2-0.17v-1.9
			c0-2.4-0.52-4.17-1.55-5.32c-1.03-1.14-2.69-1.72-4.96-1.72c-2.55,0-5.44,0.78-8.67,2.35l-1.43-3.55
			c1.51-0.82,3.16-1.46,4.96-1.93c1.8-0.47,3.6-0.7,5.41-0.7c3.65,0,6.36,0.81,8.12,2.43c1.76,1.62,2.64,4.22,2.64,7.79v20.88
			H211.15z M200.67,476.78c2.89,0,5.16-0.79,6.81-2.37c1.65-1.58,2.47-3.8,2.47-6.64V465l-4.64,0.19c-3.69,0.13-6.35,0.7-7.98,1.72
			c-1.63,1.01-2.45,2.59-2.45,4.73c0,1.68,0.51,2.95,1.52,3.82C197.42,476.34,198.84,476.78,200.67,476.78z"/>
		<path class="st0" d="M238.14,448.89c1.36,0,2.58,0.11,3.66,0.33l-0.64,4.3c-1.27-0.28-2.39-0.42-3.36-0.42
			c-2.48,0-4.6,1-6.36,3.01c-1.76,2.01-2.64,4.51-2.64,7.51v16.42h-4.64v-30.6h3.83l0.53,5.67h0.22c1.14-1.99,2.51-3.53,4.11-4.61
			C234.46,449.43,236.22,448.89,238.14,448.89z"/>
		<path class="st0" d="M266.39,480.05l-0.92-4.35h-0.22c-1.53,1.92-3.05,3.21-4.57,3.89c-1.52,0.68-3.42,1.02-5.69,1.02
			c-3.04,0-5.42-0.78-7.14-2.34c-1.73-1.56-2.59-3.79-2.59-6.67c0-6.18,4.95-9.42,14.85-9.72l5.2-0.17v-1.9
			c0-2.4-0.52-4.17-1.55-5.32c-1.03-1.14-2.69-1.72-4.96-1.72c-2.55,0-5.44,0.78-8.67,2.35l-1.43-3.55
			c1.51-0.82,3.16-1.46,4.96-1.93c1.8-0.47,3.6-0.7,5.41-0.7c3.65,0,6.36,0.81,8.12,2.43c1.76,1.62,2.64,4.22,2.64,7.79v20.88
			H266.39z M255.9,476.78c2.89,0,5.16-0.79,6.81-2.37s2.47-3.8,2.47-6.64V465l-4.64,0.19c-3.69,0.13-6.35,0.7-7.98,1.72
			c-1.63,1.01-2.45,2.59-2.45,4.73c0,1.68,0.51,2.95,1.52,3.82C252.65,476.34,254.07,476.78,255.9,476.78z M254.81,444.7
			c0.9-1.15,1.86-2.55,2.89-4.19c1.03-1.64,1.85-3.06,2.45-4.27h5.65v0.59c-0.82,1.21-2.04,2.7-3.66,4.47
			c-1.62,1.77-3.03,3.14-4.22,4.1h-3.1V444.7z"/>
	</g>
	<g>
		<path class="st1" d="M225.34,56.19c0,2.93-2.37,5.29-5.29,5.29h-43.79c-2.92,0-5.28-2.36-5.28-5.29V12.4
			c0-2.92,2.36-5.29,5.28-5.29h43.79c2.92,0,5.29,2.38,5.29,5.29V56.19z"/>
		<path class="st1" d="M290.57,56.19c0,2.93-2.37,5.29-5.28,5.29H241.5c-2.93,0-5.29-2.36-5.29-5.29V12.4
			c0-2.92,2.37-5.29,5.29-5.29h43.79c2.92,0,5.28,2.38,5.28,5.29V56.19z"/>
		<path class="st1" d="M290.57,186.66c0,2.92-2.37,5.29-5.28,5.29H241.5c-2.93,0-5.29-2.37-5.29-5.29v-43.78
			c0-2.93,2.37-5.29,5.29-5.29h43.79c2.92,0,5.28,2.37,5.28,5.29V186.66z"/>
		<path class="st1" d="M160.09,121.38c0,2.93-2.37,5.29-5.28,5.29h-43.78c-2.93,0-5.29-2.36-5.29-5.29V77.6
			c0-2.92,2.36-5.29,5.29-5.29h43.78c2.92,0,5.28,2.37,5.28,5.29V121.38z"/>
		<path class="st1" d="M225.34,121.38c0,2.93-2.37,5.29-5.29,5.29h-43.79c-2.92,0-5.28-2.36-5.28-5.29V77.6
			c0-2.92,2.36-5.29,5.28-5.29h43.79c2.92,0,5.29,2.37,5.29,5.29V121.38z"/>
		<path class="st1" d="M160.09,186.66c0,2.92-2.37,5.29-5.28,5.29h-43.78c-2.93,0-5.29-2.37-5.29-5.29v-43.78
			c0-2.93,2.36-5.29,5.29-5.29h43.78c2.92,0,5.28,2.37,5.28,5.29V186.66z"/>
		<path class="st1" d="M225.34,186.66c0,2.92-2.37,5.29-5.29,5.29h-43.79c-2.92,0-5.28-2.37-5.28-5.29v-43.78
			c0-2.93,2.36-5.29,5.28-5.29h43.79c2.92,0,5.29,2.37,5.29,5.29V186.66z"/>
		<path class="st1" d="M160.09,251.97c0,2.93-2.37,5.29-5.28,5.29h-43.78c-2.93,0-5.29-2.37-5.29-5.29v-43.77
			c0-2.92,2.36-5.29,5.29-5.29h43.78c2.92,0,5.28,2.37,5.28,5.29V251.97z"/>
		<path class="st1" d="M225.34,251.97c0,2.93-2.37,5.29-5.29,5.29h-43.79c-2.92,0-5.28-2.37-5.28-5.29v-43.77
			c0-2.92,2.36-5.29,5.28-5.29h43.79c2.92,0,5.29,2.37,5.29,5.29V251.97z"/>
		<path class="st2" d="M162.81,34.3c0,16.51-13.38,29.9-29.9,29.9c-16.51,0-29.89-13.39-29.89-29.9c0-16.52,13.39-29.91,29.89-29.91
			C149.43,4.4,162.81,17.78,162.81,34.3"/>
	</g>
	<g>
		<g>
			<path class="st0" d="M1.5,349.39V295.3h11.49v54.09H1.5z"/>
		</g>
		<g>
			<path class="st0" d="M74.76,349.39h-14.6l-23.57-40.92h-0.33c0.1,1.7,0.19,3.42,0.26,5.14c0.07,1.73,0.15,3.45,0.22,5.16
				c0.07,1.71,0.15,3.43,0.22,5.16v25.45H26.69V295.3h14.49l23.53,40.51h0.26c-0.05-1.68-0.11-3.34-0.19-4.99
				c-0.07-1.65-0.14-3.3-0.2-4.96c-0.06-1.65-0.12-3.3-0.17-4.96v-25.6h10.34V349.39z"/>
			<path class="st0" d="M120.53,334.37c0,3.21-0.78,5.99-2.33,8.36c-1.56,2.37-3.82,4.19-6.8,5.48s-6.59,1.92-10.84,1.92
				c-1.88,0-3.71-0.12-5.5-0.37c-1.79-0.25-3.51-0.61-5.15-1.09c-1.64-0.48-3.21-1.08-4.69-1.79v-10.65
				c2.57,1.14,5.24,2.16,8.01,3.07c2.77,0.91,5.51,1.37,8.23,1.37c1.88,0,3.39-0.25,4.54-0.74c1.15-0.49,1.98-1.17,2.5-2.03
				c0.52-0.86,0.78-1.85,0.78-2.96c0-1.36-0.46-2.52-1.37-3.48c-0.91-0.96-2.17-1.86-3.76-2.7c-1.59-0.84-3.39-1.74-5.39-2.7
				c-1.26-0.59-2.63-1.31-4.11-2.16c-1.48-0.85-2.89-1.89-4.22-3.13c-1.33-1.23-2.43-2.73-3.28-4.5c-0.85-1.76-1.28-3.88-1.28-6.34
				c0-3.23,0.74-5.99,2.22-8.29c1.48-2.29,3.6-4.05,6.36-5.27c2.75-1.22,6.01-1.83,9.77-1.83c2.82,0,5.5,0.33,8.06,0.98
				c2.56,0.65,5.23,1.6,8.02,2.83l-3.71,8.92c-2.5-1.01-4.73-1.79-6.71-2.35c-1.98-0.56-3.99-0.83-6.04-0.83
				c-1.43,0-2.66,0.23-3.67,0.68c-1.01,0.46-1.78,1.1-2.3,1.92c-0.52,0.83-0.78,1.78-0.78,2.87c0,1.28,0.38,2.36,1.13,3.24
				c0.75,0.87,1.89,1.72,3.41,2.53c1.52,0.81,3.42,1.76,5.69,2.85c2.77,1.31,5.13,2.67,7.1,4.09c1.96,1.42,3.48,3.08,4.54,4.99
				C120,329.16,120.53,331.53,120.53,334.37z"/>
		</g>
		<g>
			<path class="st0" d="M151.43,349.39h-11.49v-44.54h-14.71v-9.54h40.91v9.54h-14.71V349.39z"/>
			<path class="st0" d="M174.48,349.39V295.3h11.49v54.09H174.48z"/>
			<path class="st0" d="M220.51,349.39h-11.49v-44.54h-14.71v-9.54h40.91v9.54h-14.71V349.39z"/>
		</g>
		<g>
			<path class="st0" d="M287.87,295.3v35c0,3.73-0.82,7.08-2.46,10.08c-1.64,3-4.13,5.37-7.45,7.12c-3.32,1.75-7.51,2.63-12.55,2.63
				c-7.17,0-12.63-1.83-16.38-5.48c-3.76-3.65-5.63-8.48-5.63-14.5V295.3h11.45v33.11c0,4.46,0.91,7.6,2.74,9.4
				c1.83,1.8,4.53,2.7,8.12,2.7c2.52,0,4.56-0.43,6.13-1.3c1.57-0.86,2.72-2.19,3.46-4c0.74-1.8,1.11-4.09,1.11-6.88V295.3H287.87z"
				/>
		</g>
		<g>
			<path class="st0" d="M322.2,349.39h-11.49v-44.54H296v-9.54h40.91v9.54H322.2V349.39z"/>
		</g>
		<g>
			<path class="st0" d="M394.5,322.27c0,4.17-0.52,7.96-1.56,11.38c-1.04,3.42-2.61,6.36-4.72,8.82c-2.11,2.47-4.79,4.36-8.02,5.68
				c-3.24,1.32-7.07,1.98-11.49,1.98c-4.42,0-8.25-0.66-11.49-1.98c-3.24-1.32-5.91-3.21-8.02-5.68c-2.11-2.47-3.69-5.41-4.72-8.84
				c-1.04-3.43-1.56-7.24-1.56-11.43c0-5.6,0.92-10.48,2.76-14.63c1.84-4.16,4.68-7.38,8.51-9.67c3.83-2.29,8.7-3.44,14.6-3.44
				c5.88,0,10.72,1.15,14.51,3.44s6.61,5.53,8.45,9.69C393.58,311.75,394.5,316.64,394.5,322.27z M354.96,322.27
				c0,3.77,0.47,7.02,1.43,9.75s2.44,4.82,4.47,6.29c2.03,1.47,4.64,2.2,7.86,2.2c3.26,0,5.9-0.73,7.93-2.2
				c2.03-1.47,3.5-3.56,4.43-6.29s1.39-5.97,1.39-9.75c0-5.67-1.06-10.14-3.19-13.39c-2.13-3.26-5.62-4.88-10.49-4.88
				c-3.24,0-5.87,0.73-7.91,2.2c-2.04,1.47-3.53,3.56-4.48,6.29S354.96,318.47,354.96,322.27z"/>
		</g>
		<g>
			<path class="st0" d="M50.52,414.4h-11.3v-54.09h31.06v9.4H50.52v13.95H68.9v9.36H50.52V414.4z"/>
		</g>
		<g>
			<path class="st0" d="M112.25,414.4h-31.2v-54.09h31.2v9.4H92.53v11.88h18.35v9.4H92.53v13.95h19.72V414.4z"/>
			<path class="st0" d="M168.5,386.83c0,6.09-1.17,11.18-3.5,15.26s-5.71,7.15-10.14,9.21c-4.42,2.06-9.75,3.09-15.97,3.09h-15.34
				v-54.09h17.01c5.68,0,10.61,1.01,14.79,3.01c4.18,2.01,7.41,4.98,9.71,8.92C167.35,376.17,168.5,381.04,168.5,386.83z
				 M156.57,387.13c0-4-0.59-7.28-1.76-9.86c-1.17-2.58-2.9-4.48-5.19-5.72c-2.29-1.23-5.11-1.85-8.47-1.85h-6.12v35.22h4.93
				c5.61,0,9.78-1.49,12.51-4.48C155.2,397.47,156.57,393.03,156.57,387.13z"/>
			<path class="st0" d="M210.94,414.4h-31.2v-54.09h31.2v9.4h-19.72v11.88h18.35v9.4h-18.35v13.95h19.72V414.4z"/>
			<path class="st0" d="M238.03,360.31c4.92,0,8.97,0.59,12.17,1.78c3.2,1.18,5.58,2.97,7.13,5.36c1.56,2.39,2.33,5.41,2.33,9.06
				c0,2.47-0.47,4.62-1.41,6.47c-0.94,1.85-2.17,3.42-3.71,4.7c-1.53,1.28-3.19,2.33-4.97,3.14l15.94,23.57h-12.75l-12.93-20.75
				h-6.12v20.75h-11.49v-54.09H238.03z M237.21,369.71h-3.48v14.61h3.71c3.8,0,6.53-0.64,8.17-1.91c1.64-1.27,2.46-3.14,2.46-5.6
				c0-2.57-0.88-4.39-2.65-5.48C243.65,370.25,240.92,369.71,237.21,369.71z"/>
		</g>
		<g>
			<path class="st0" d="M305.78,414.4l-3.93-12.87H282.1l-3.93,12.87h-12.38l19.12-54.31h14.05l19.2,54.31H305.78z M299.11,391.9
				l-3.93-12.58c-0.25-0.84-0.57-1.92-0.98-3.24c-0.41-1.32-0.81-2.66-1.22-4.03c-0.41-1.37-0.74-2.56-0.98-3.57
				c-0.25,1.01-0.59,2.26-1.02,3.76c-0.43,1.49-0.85,2.9-1.24,4.24c-0.4,1.33-0.68,2.28-0.85,2.85l-3.89,12.58H299.11z"/>
		</g>
		<g>
			<path class="st0" d="M325.14,414.4v-54.09h11.49v44.62h21.98v9.47H325.14z"/>
		</g>
	</g>
</g>
</svg>
